<svg xmlns="http://www.w3.org/2000/svg" viewBox="0 0 1600 900" role="img">
  <title>Warm bedroom cutaway</title>
  <desc>A detailed bedroom with a bed, textiles, window, dressing area, lighting and an open wardrobe.</desc>
  <defs>
    <linearGradient id="wall" x2="0" y2="1"><stop stop-color="#f5ead8"/><stop offset="1" stop-color="#ddc8a9"/></linearGradient>
    <linearGradient id="sun" x2="0" y2="1"><stop stop-color="#dce9dc"/><stop offset="1" stop-color="#9eb9b0"/></linearGradient>
    <filter id="shadow"><feDropShadow dx="0" dy="12" stdDeviation="14" flood-color="#173f35" flood-opacity=".16"/></filter>
    <pattern id="weave" width="16" height="16" patternUnits="userSpaceOnUse"><path d="M0 8h16M8 0v16" stroke="#fff" stroke-opacity=".18"/></pattern>
  </defs>
  <rect width="1600" height="900" fill="url(#wall)"/>
  <path d="M0 735 800 610l800 125v165H0z" fill="#9c795b"/>
  <path d="M0 755 800 632l800 123M160 900l690-274M500 900l430-258M1060 900 980 650M1400 900l-340-238" stroke="#c3a384" stroke-width="5" opacity=".52"/>
  <rect x="140" y="120" width="400" height="320" rx="8" fill="#f9f4e9" stroke="#315c52" stroke-width="12"/>
  <rect x="164" y="144" width="352" height="272" fill="url(#sun)"/>
  <path d="M340 144v272M164 280h352" stroke="#f7f1df" stroke-width="12"/>
  <path d="M110 96q120 70 70 382M570 96q-120 70-70 382" fill="#a56850" opacity=".86"/>
  <g filter="url(#shadow)">
    <rect x="320" y="470" width="650" height="265" rx="38" fill="#315a51"/>
    <rect x="365" y="405" width="560" height="115" rx="30" fill="#6f8f7f"/>
    <rect x="350" y="505" width="590" height="165" rx="28" fill="#d9b76d"/>
    <rect x="350" y="505" width="590" height="165" rx="28" fill="url(#weave)"/>
    <path d="M640 510v160" stroke="#f4dfaa" stroke-width="8" opacity=".65"/>
    <rect x="405" y="438" width="215" height="94" rx="38" fill="#f4eee1"/>
    <rect x="655" y="438" width="215" height="94" rx="38" fill="#f4eee1"/>
  </g>
  <g filter="url(#shadow)">
    <rect x="180" y="550" width="140" height="150" rx="12" fill="#a46e4f"/>
    <path d="M205 610h90M205 650h90" stroke="#e6c69a" stroke-width="5"/>
    <circle cx="250" cy="580" r="6" fill="#f0d28d"/>
    <path d="M250 550V420" stroke="#315a51" stroke-width="12"/>
    <path d="M175 425q75-105 150 0z" fill="#d39b55"/>
  </g>
  <g filter="url(#shadow)">
    <rect x="1040" y="120" width="410" height="610" rx="16" fill="#765644"/>
    <rect x="1070" y="155" width="350" height="535" rx="8" fill="#e8d7bd"/>
    <path d="M1245 155v535M1070 360h350" stroke="#765644" stroke-width="10"/>
    <path d="M1100 225h290" stroke="#315a51" stroke-width="10"/>
    <path d="M1150 225v115l-52 105h104l-52-105M1285 225v115l-55 112h110l-55-112" fill="none" stroke="#c57d56" stroke-width="10"/>
    <path d="M1092 385h132v260h-132z" fill="#54786c"/><path d="M1260 385h138v260h-138z" fill="#c58359"/>
    <path d="M1090 540h310" stroke="#f1dfc0" stroke-width="6" opacity=".65"/>
  </g>
  <ellipse cx="800" cy="785" rx="440" ry="72" fill="#d4b971" opacity=".55"/>
  <g fill="#54786c"><ellipse cx="1025" cy="690" rx="50" ry="26"/><path d="M1025 690q-45-110-10-190M1020 600q-70-35-85-92M1018 565q75-55 98-116" fill="none" stroke="#54786c" stroke-width="14"/><path d="M965 520q-50-50-74 10 46 35 74-10M1078 488q44-60 78-3-38 46-78 3"/></g>
</svg>
