<svg xmlns="http://www.w3.org/2000/svg" viewBox="0 0 1600 900" role="img">
  <title>Chloroplast interior cutaway</title>
  <desc>A chloroplast cutaway with a double envelope, stroma, stacked thylakoids, connecting lamellae, starch grains and light-driven energy paths.</desc>
  <defs><radialGradient id="bg"><stop stop-color="#f2f1d5"/><stop offset="1" stop-color="#a5b985"/></radialGradient><linearGradient id="cell"><stop stop-color="#bed278"/><stop offset=".5" stop-color="#7fa465"/><stop offset="1" stop-color="#47785b"/></linearGradient><filter id="s"><feDropShadow dy="16" stdDeviation="20" flood-color="#173f35" flood-opacity=".25"/></filter></defs>
  <rect width="1600" height="900" fill="url(#bg)"/>
  <g filter="url(#s)"><ellipse cx="800" cy="450" rx="665" ry="340" fill="url(#cell)" stroke="#315c52" stroke-width="18"/><ellipse cx="800" cy="450" rx="620" ry="300" fill="#c7d792" stroke="#eef1cc" stroke-width="14"/></g>
  <g fill="#49765c" stroke="#315748" stroke-width="6"><g transform="translate(420 280)"><ellipse rx="120" ry="27"/><ellipse cy="34" rx="120" ry="27"/><ellipse cy="68" rx="120" ry="27"/><ellipse cy="102" rx="120" ry="27"/><ellipse cy="136" rx="120" ry="27"/></g><g transform="translate(805 245)"><ellipse rx="120" ry="27"/><ellipse cy="34" rx="120" ry="27"/><ellipse cy="68" rx="120" ry="27"/><ellipse cy="102" rx="120" ry="27"/><ellipse cy="136" rx="120" ry="27"/></g><g transform="translate(1110 420)"><ellipse rx="120" ry="27"/><ellipse cy="34" rx="120" ry="27"/><ellipse cy="68" rx="120" ry="27"/><ellipse cy="102" rx="120" ry="27"/><ellipse cy="136" rx="120" ry="27"/></g><g transform="translate(650 555)"><ellipse rx="120" ry="27"/><ellipse cy="34" rx="120" ry="27"/><ellipse cy="68" rx="120" ry="27"/><ellipse cy="102" rx="120" ry="27"/></g></g>
  <g fill="none" stroke="#6f9872" stroke-width="24"><path d="M540 350q145 65 145-15t120-25M925 340q120 30 185 110M770 615q150-20 260-90M420 420q65 100 160 155"/></g>
  <g fill="#eee4b3" stroke="#a48f55" stroke-width="8"><ellipse cx="1000" cy="660" rx="110" ry="70"/><ellipse cx="300" cy="560" rx="82" ry="55"/></g><g fill="#d2aa48"><circle cx="550" cy="220" r="16"/><circle cx="680" cy="450" r="14"/><circle cx="925" cy="520" r="16"/><circle cx="1200" cy="300" r="14"/></g>
  <g fill="none" stroke="#f4c844" stroke-width="10" stroke-dasharray="12 16"><path d="M300 80 420 235M650 65 760 210M980 75 990 225M1320 90l-140 170"/></g><g fill="#f4c844"><path d="m408 218 30 35-46 5zM748 195l28 36-44 2zM980 210l16 42-43-12zM1195 244l-34 30-10-43z"/></g>
  <path d="M530 710q190 80 380 0" fill="none" stroke="#315c52" stroke-width="8" stroke-dasharray="10 14"/>
</svg>
