<svg xmlns="http://www.w3.org/2000/svg" viewBox="0 0 1600 900" role="img" aria-labelledby="title desc">
  <title id="title">An old oak from crown to roots</title><desc id="desc">A cross-section reveals crown, branches, trunk rings, bark, soil, roots and the habitat around them.</desc>
  <defs><linearGradient id="sky" x1="0" y1="0" x2="0" y2="1"><stop stop-color="#e3f0e9"/><stop offset="1" stop-color="#d8c49f"/></linearGradient><linearGradient id="soil" x1="0" y1="0" x2="0" y2="1"><stop stop-color="#8b694e"/><stop offset="1" stop-color="#3c332b"/></linearGradient><linearGradient id="bark" x1="0" y1="0" x2="1" y2="0"><stop stop-color="#5b4334"/><stop offset=".5" stop-color="#967052"/><stop offset="1" stop-color="#4c392e"/></linearGradient><filter id="s"><feDropShadow dx="0" dy="13" stdDeviation="14" flood-color="#1f3d36" flood-opacity=".23"/></filter></defs>
  <rect width="1600" height="900" fill="url(#sky)"/><path d="M0 675Q280 620 540 680t460-8 600 5v223H0Z" fill="url(#soil)"/><path d="M0 680q290-35 530 9t470-7 600 5" fill="none" stroke="#a9c08c" stroke-width="25"/>
  <g filter="url(#s)"><path d="M620 700q80-270 55-430h250q-25 190 60 430Z" fill="url(#bark)" stroke="#4c372c" stroke-width="18"/><path d="M700 390Q570 285 415 270M735 340Q650 190 545 150M860 350q105-155 250-190m-175 235q180-115 325-80" fill="none" stroke="#674b39" stroke-width="52" stroke-linecap="round"/></g>
  <g fill="#6f9b70" stroke="#4f755b" stroke-width="7"><circle cx="400" cy="250" r="145"/><circle cx="555" cy="180" r="155"/><circle cx="730" cy="185" r="160"/><circle cx="910" cy="190" r="165"/><circle cx="1080" cy="235" r="160"/><circle cx="1230" cy="320" r="135"/><circle cx="505" cy="350" r="135"/><circle cx="800" cy="320" r="170"/><circle cx="1050" cy="365" r="140"/></g><g fill="#9abd79" opacity=".75"><circle cx="470" cy="175" r="70"/><circle cx="690" cy="125" r="80"/><circle cx="930" cy="135" r="76"/><circle cx="1150" cy="250" r="70"/></g>
  <path d="M670 695q-160 40-310 150m365-140q-30 75-55 175m170-175q40 95 25 175m55-180q185 38 315 145" fill="none" stroke="#694c39" stroke-width="42" stroke-linecap="round"/><g stroke="#9c7857" stroke-width="7" fill="none"><path d="M360 845q-70 10-130 40m440-5q-50-5-95 20m290-20q65-12 112 20m258-55q80 0 135 35"/></g>
  <path d="M660 520q75-55 150 5t145-10" fill="none" stroke="#b99a6e" stroke-width="9"/><ellipse cx="800" cy="640" rx="115" ry="58" fill="#d4ae78" stroke="#5c4232" stroke-width="14"/><g fill="none" stroke="#856044" stroke-width="8"><ellipse cx="800" cy="640" rx="82" ry="39"/><ellipse cx="800" cy="640" rx="48" ry="22"/><ellipse cx="800" cy="640" rx="18" ry="8"/></g><path d="M680 550q55-75 110 0v90q-70 30-110-15Z" fill="#2f2c25"/>
  <g><path d="M1040 315q28-70 58 0v70q-30 35-58 0Z" fill="#b4844f"/><path d="M1040 320q29 22 58 0" stroke="#684b35" stroke-width="8"/><path d="M1210 700q45-80 90 0v105h-90Z" fill="#8cab74"/><path d="M1255 700v-80" stroke="#597a55" stroke-width="12"/><path d="M1255 645q-50-45-72-5 27 40 72 20m0-20q45-48 80-10-20 42-80 30" fill="#88b677"/></g><g fill="#789866"><ellipse cx="610" cy="735" rx="48" ry="18"/><ellipse cx="945" cy="725" rx="62" ry="22"/></g>
</svg>
