<svg xmlns="http://www.w3.org/2000/svg" viewBox="0 0 1600 900" role="img">
  <title>Oxygen molecule journey</title>
  <desc>Two bonded oxygen atoms shown between an airy alveolus and a flowing capillary, with electron clouds and diffusion paths.</desc>
  <defs><radialGradient id="bg"><stop stop-color="#f7f4e9"/><stop offset="1" stop-color="#c8d9d3"/></radialGradient><radialGradient id="atom"><stop offset="0" stop-color="#ec9b7b"/><stop offset=".58" stop-color="#bf4d50"/><stop offset="1" stop-color="#6f2730"/></radialGradient><filter id="glow"><feGaussianBlur stdDeviation="18"/></filter><filter id="s"><feDropShadow dy="13" stdDeviation="18" flood-color="#173f35" flood-opacity=".22"/></filter></defs>
  <rect width="1600" height="900" fill="url(#bg)"/>
  <path d="M0 170q250-150 470 20t20 360Q280 760 0 640z" fill="#efc4b7" stroke="#b96763" stroke-width="14"/><path d="M1600 190q-260-145-500 20t-15 350q230 210 515 65z" fill="#cc6b68" stroke="#873f44" stroke-width="14"/><path d="M0 570q260 130 520 20t560 20 520-20v310H0z" fill="#b75357" opacity=".72"/><g fill="#efb39c" opacity=".76"><ellipse cx="250" cy="250" rx="90" ry="70"/><ellipse cx="160" cy="450" rx="105" ry="80"/><ellipse cx="370" cy="480" rx="95" ry="75"/></g>
  <g filter="url(#s)"><circle cx="700" cy="430" r="190" fill="url(#atom)"/><circle cx="910" cy="430" r="190" fill="url(#atom)"/><path d="M775 392h60M775 468h60" stroke="#f4d88c" stroke-width="24" stroke-linecap="round"/></g>
  <g fill="#f4c453"><circle cx="650" cy="375" r="14"/><circle cx="730" cy="480" r="14"/><circle cx="875" cy="350" r="14"/><circle cx="950" cy="485" r="14"/></g><ellipse cx="700" cy="430" rx="245" ry="125" fill="none" stroke="#78a9a4" stroke-width="8" opacity=".6"/><ellipse cx="910" cy="430" rx="245" ry="125" fill="none" stroke="#78a9a4" stroke-width="8" opacity=".6"/>
  <g fill="none" stroke="#5b9089" stroke-width="10" stroke-dasharray="14 18"><path d="M330 330q150 20 240 80"/><path d="M1040 470q170 20 300 120"/><path d="M345 535q135-35 240-55"/></g><g fill="#5b9089"><path d="m565 390 28 28-40 6z"/><path d="m1325 570 35 23-35 17z"/></g>
  <g fill="#f4c1aa" stroke="#8b4145" stroke-width="8"><ellipse cx="1200" cy="700" rx="120" ry="58"/><ellipse cx="1450" cy="745" rx="105" ry="50"/><ellipse cx="940" cy="735" rx="105" ry="48"/></g>
</svg>
