<svg xmlns="http://www.w3.org/2000/svg" viewBox="0 0 1600 900" role="img" aria-labelledby="title desc">
  <title id="title">Plant cell interior</title><desc id="desc">A layered microscopic plant cell with wall, membrane, nucleus, vacuole, chloroplasts and energy-producing organelles.</desc>
  <defs><radialGradient id="bg"><stop stop-color="#49766b"/><stop offset="1" stop-color="#132f2d"/></radialGradient><linearGradient id="cell" x1="0" y1="0" x2="1" y2="1"><stop stop-color="#d7e9b5"/><stop offset="1" stop-color="#76a978"/></linearGradient><radialGradient id="nucleus"><stop stop-color="#e6bd8b"/><stop offset="1" stop-color="#9b5e61"/></radialGradient><filter id="glow"><feGaussianBlur stdDeviation="10" result="b"/><feMerge><feMergeNode in="b"/><feMergeNode in="SourceGraphic"/></feMerge></filter><pattern id="dots" width="36" height="36" patternUnits="userSpaceOnUse"><circle cx="8" cy="10" r="3" fill="#315e53" opacity=".22"/><circle cx="28" cy="25" r="2" fill="#fff" opacity=".24"/></pattern></defs>
  <rect width="1600" height="900" fill="url(#bg)"/><g opacity=".28" fill="#d9f1dc"><circle cx="140" cy="150" r="25"/><circle cx="1450" cy="170" r="18"/><circle cx="130" cy="760" r="16"/><circle cx="1490" cy="700" r="28"/></g>
  <path d="M205 145Q800 70 1395 145q95 305 0 610Q800 835 205 755q-95-305 0-610Z" fill="url(#cell)" stroke="#a8d08d" stroke-width="35"/><path d="M230 175Q800 105 1370 175q72 275 0 550Q800 795 230 725q-72-275 0-550Z" fill="#d5e8c3" stroke="#416f60" stroke-width="15"/><path d="M230 175Q800 105 1370 175q72 275 0 550Q800 795 230 725q-72-275 0-550Z" fill="url(#dots)"/>
  <path d="M710 235q380-90 510 120 30 230-160 340-310 60-410-170-20-190 60-290Z" fill="#a8d8cc" opacity=".72" stroke="#5a9a8d" stroke-width="14"/><path d="M760 270q285-65 385 95 15 170-130 255-230 35-305-145-10-140 50-205Z" fill="#d8f1e9" opacity=".45"/>
  <g filter="url(#glow)"><circle cx="560" cy="430" r="135" fill="url(#nucleus)" stroke="#633f4b" stroke-width="16"/><circle cx="540" cy="410" r="58" fill="#f0d3a5" opacity=".7"/><path d="M500 370q75 45 15 120m60-145q60 75 0 150" fill="none" stroke="#805463" stroke-width="12"/></g>
  <g fill="#4e956c" stroke="#285a4b" stroke-width="12"><ellipse cx="410" cy="245" rx="92" ry="46" transform="rotate(-18 410 245)"/><ellipse cx="1180" cy="290" rx="92" ry="46" transform="rotate(16 1180 290)"/><ellipse cx="1240" cy="600" rx="92" ry="46" transform="rotate(-15 1240 600)"/><ellipse cx="480" cy="670" rx="92" ry="46" transform="rotate(12 480 670)"/></g><g stroke="#b9d67e" stroke-width="8"><path d="M350 245h120m650 45h120m-40 310h120M420 670h120"/></g>
  <g fill="#d38e67" stroke="#714b4f" stroke-width="11"><path d="M320 470q85-70 140 10-45 105-140 20Z"/><path d="M1080 730q85-70 140 10-45 105-140 20Z"/></g><g fill="#6b8e77"><circle cx="755" cy="215" r="14"/><circle cx="820" cy="190" r="11"/><circle cx="900" cy="230" r="13"/><circle cx="660" cy="700" r="12"/><circle cx="760" cy="735" r="10"/></g><g fill="none" stroke="#7d6a84" stroke-width="12" stroke-linecap="round"><path d="M625 270q95-70 165 0t145 0"/><path d="M620 620q90-70 150 0t130 0"/></g><g fill="#f0cb75"><circle cx="625" cy="270" r="13"/><circle cx="705" cy="235" r="11"/><circle cx="790" cy="270" r="13"/><circle cx="845" cy="295" r="10"/><circle cx="935" cy="270" r="13"/></g>
</svg>
