<svg xmlns="http://www.w3.org/2000/svg" viewBox="0 0 1600 900" role="img">
  <title>Train carriage interior cutaway</title>
  <desc>A rail carriage interior with seats, windows, doors, luggage racks, displays, lighting and the underfloor bogie area.</desc>
  <defs><linearGradient id="wall" x2="0" y2="1"><stop stop-color="#eef0e7"/><stop offset="1" stop-color="#c9d0c4"/></linearGradient><linearGradient id="window" x2="0" y2="1"><stop stop-color="#a9c3c2"/><stop offset="1" stop-color="#e5c991"/></linearGradient><filter id="s"><feDropShadow dy="10" stdDeviation="13" flood-color="#173f35" flood-opacity=".18"/></filter></defs>
  <rect width="1600" height="900" fill="#d7c7aa"/><path d="M90 100q710-120 1420 0v665H90z" fill="url(#wall)" stroke="#315c52" stroke-width="16"/>
  <path d="M150 155h1300M150 515h1300M150 705h1300" stroke="#718b80" stroke-width="12"/>
  <g fill="url(#window)" stroke="#f5f0df" stroke-width="10"><rect x="175" y="205" width="240" height="235" rx="18"/><rect x="455" y="205" width="240" height="235" rx="18"/><rect x="905" y="205" width="240" height="235" rx="18"/><rect x="1185" y="205" width="240" height="235" rx="18"/></g>
  <g filter="url(#s)" fill="#477267"><path d="M180 535h190l35 170H150z"/><path d="M430 535h190l35 170H400z"/><path d="M945 535h190l35 170H915z"/><path d="M1195 535h190l35 170h-255z"/></g><g fill="#c88256"><rect x="155" y="570" width="250" height="45" rx="18"/><rect x="405" y="570" width="250" height="45" rx="18"/><rect x="920" y="570" width="250" height="45" rx="18"/><rect x="1170" y="570" width="250" height="45" rx="18"/></g>
  <rect x="705" y="175" width="190" height="530" rx="14" fill="#e7d9be" stroke="#315c52" stroke-width="12"/><path d="M800 175v530M725 425h150" stroke="#9d7b5a" stroke-width="8"/><circle cx="775" cy="445" r="9" fill="#c58051"/><circle cx="825" cy="445" r="9" fill="#c58051"/>
  <path d="M150 170h1300l-100 75H250z" fill="#365e56"/><path d="M250 195h1100" stroke="#e6c96f" stroke-width="14" stroke-dasharray="120 25"/>
  <g fill="none" stroke="#c37e55" stroke-width="9"><path d="M300 170v95q0 30-28 30t-28-30M555 170v95q0 30-28 30t-28-30M1055 170v95q0 30-28 30t-28-30M1310 170v95q0 30-28 30t-28-30"/></g>
  <rect x="610" y="110" width="380" height="70" rx="15" fill="#f5eedb" stroke="#315c52" stroke-width="8"/><path d="M660 145h130M830 145h110" stroke="#5e8278" stroke-width="10"/>
  <path d="M80 765h1440v135H80z" fill="#50615e"/><g fill="#263b38"><circle cx="520" cy="825" r="58"/><circle cx="1080" cy="825" r="58"/></g><path d="M410 775h780l-75 85H485z" fill="#2d4742" stroke="#d1a654" stroke-width="9"/><path d="M530 790h540M650 780l-50 80M950 780l50 80" stroke="#c67f55" stroke-width="16"/>
</svg>
